<?xml version='1.0' encoding='iso-8859-1'?>
<svg version="1.1" xmlns="http://www.w3.org/2000/svg" viewBox="0 0 463 463" xmlns:xlink="http://www.w3.org/1999/xlink" enable-background="new 0 0 463 463" fill="#d2940e">
  <g>
    <path d="m63.5,155h17.223c1.028,5.325 3.121,10.275 6.061,14.61l-12.185,12.185c-2.929,2.929-2.929,7.678 0,10.606 1.465,1.464 3.385,2.197 5.304,2.197s3.839-0.732 5.304-2.197l12.185-12.185c4.335,2.939 9.284,5.032 14.609,6.06v17.224c0,4.142 3.357,7.5 7.5,7.5s7.5-3.358 7.5-7.5v-17.223c5.325-1.028 10.274-3.121 14.609-6.06l12.185,12.185c1.465,1.464 3.385,2.197 5.304,2.197s3.839-0.732 5.304-2.197c2.929-2.929 2.929-7.678 0-10.606l-12.185-12.185c2.939-4.335 5.033-9.285 6.061-14.61h17.221c4.143,0 7.5-3.358 7.5-7.5s-3.357-7.5-7.5-7.5h-17.223c-1.028-5.325-3.121-10.275-6.061-14.61l12.185-12.185c2.929-2.929 2.929-7.678 0-10.606-2.93-2.929-7.678-2.929-10.607,0l-12.185,12.185c-4.335-2.939-9.284-5.032-14.609-6.06v-17.225c0-4.142-3.357-7.5-7.5-7.5s-7.5,3.358-7.5,7.5v17.223c-5.325,1.028-10.274,3.121-14.609,6.06l-12.185-12.185c-2.93-2.929-7.678-2.929-10.607,0-2.929,2.929-2.929,7.678 0,10.606l12.185,12.185c-2.939,4.335-5.033,9.285-6.061,14.61h-17.223c-4.143,0-7.5,3.358-7.5,7.5s3.357,7.501 7.5,7.501zm56-32c13.51,0 24.5,10.991 24.5,24.5s-10.99,24.5-24.5,24.5-24.5-10.991-24.5-24.5 10.99-24.5 24.5-24.5z"/>
    <path d="m303.5,211h32c4.143,0 7.5-3.358 7.5-7.5v-32c0-4.142-3.357-7.5-7.5-7.5h-32c-4.143,0-7.5,3.358-7.5,7.5v32c0,4.142 3.357,7.5 7.5,7.5zm7.5-32h17v17h-17v-17z"/>
    <path d="m455.5,364h-250.097c1.027-2.638 1.597-5.503 1.597-8.5 0-10.336-6.71-19.128-16-22.266v-16.116c54.17-17.79 95.228-26.118 128.5-26.118 78.851,0 130.833,38.004 131.505,38.504 1.349,1.009 2.926,1.497 4.489,1.497 2.28,0 4.532-1.036 6.006-3 2.485-3.313 1.813-8.015-1.5-10.5-1.325-0.993-20.448-15.079-53-26.569v-79.189l1.988,3.48c1.385,2.422 3.915,3.78 6.519,3.78 1.262,0 2.54-0.319 3.714-0.99 3.597-2.055 4.847-6.636 2.791-10.233l-32-56c-0.734-1.286-1.833-2.325-3.157-2.987l-64-32c-2.111-1.056-4.598-1.056-6.709,0l-64,32c-1.324,0.662-2.423,1.701-3.157,2.987l-32,56c-2.056,3.597-0.806,8.178 2.791,10.233 3.596,2.057 8.178,0.806 10.232-2.791l1.988-3.48v30.298c-39.509-10.316-81.168-6.919-121.184,9.96h-23.316c-4.143,0-7.5,3.358-7.5,7.5v11.423c-22.627-11.342-45.832-17.411-72.072-18.911-4.133-0.241-7.679,2.924-7.915,7.06-0.236,4.135 2.924,7.679 7.06,7.916 34.122,1.95 57.575,12.322 72.928,20.871v54.078c-31.095,11.836-59.506,22.063-72.501,22.063-4.143,0-7.5,3.358-7.5,7.5s3.357,7.5 7.5,7.5h448c4.143,0 7.5-3.358 7.5-7.5s-3.357-7.5-7.5-7.5zm-272,0c-4.687,0-8.5-3.813-8.5-8.5s3.813-8.5 8.5-8.5 8.5,3.813 8.5,8.5-3.813,8.5-8.5,8.5zm-71.179-97c0.002,0 0.005,0 0.007,0 0.003,0 0.007,0 0.01,0h23.662v32.98l-41-6.833v-26.147h17.321zm63.679,54.854v11.381c-3.955,1.336-7.441,3.696-10.141,6.766h-23.768c-3.374-13.759-15.806-24-30.591-24-6.046,0-11.698,1.716-16.5,4.681v-12.328l81,13.5zm-81,25.646c0-9.098 7.402-16.5 16.5-16.5s16.5,7.402 16.5,16.5-7.402,16.5-16.5,16.5-16.5-7.402-16.5-16.5zm47.091,7.5h17.922c-0.004,0.167-0.013,0.332-0.013,0.5 0,2.997 0.57,5.862 1.597,8.5h-23.279c1.698-2.749 2.982-5.778 3.773-9zm209.909-112v35.003c-7.975-0.986-16.314-1.65-25-1.895v-33.108h25zm-40,33.131c-7.922,0.267-16.239,0.957-25,2.074v-35.205h25v33.131zm-51.115-114.938l58.615-29.308 58.615,29.308 13.885,24.299v100.648c-7.764-2.222-16.111-4.221-25-5.846v-44.794c0-4.142-3.357-7.5-7.5-7.5h-80c-4.143,0-7.5,3.358-7.5,7.5v44.964c-7.968,1.374-16.284,3.064-25,5.093v-100.065l13.885-24.299zm-28.885,96.393v31.689c-17.322,4.538-36.123,10.275-56.65,17.264l-.35-.059v-19.873l5.804-5.803c2.929-2.929 2.929-7.678 0-10.606-2.93-2.929-7.678-2.929-10.607,0l-8,8c-1.406,1.406-2.196,3.314-2.196,5.303v20.48l-9-1.5v-35.481h0.5c4.143,0 7.5-3.358 7.5-7.5 0-2.28-1.021-4.319-2.627-5.694 25.432-4.641 50.733-3.386 75.626,3.78zm-150.405,99.79c0.775,2.34 1.813,4.561 3.087,6.624h-20.845c5.664-2.065 11.596-4.287 17.758-6.624z"/>
  </g>
</svg>
