<?xml version="1.0" encoding="iso-8859-1"?>
<!-- Generator: Adobe Illustrator 19.0.0, SVG Export Plug-In . SVG Version: 6.00 Build 0)  -->
<svg version="1.1" id="Capa_1" xmlns="http://www.w3.org/2000/svg" xmlns:xlink="http://www.w3.org/1999/xlink" x="0px" y="0px"
	 viewBox="0 0 463 463" style="enable-background:new 0 0 463 463;" xml:space="preserve" fill="#d2940e">
<g>
	<path d="M398.901,333.619c-0.115-0.028-0.232-0.055-0.349-0.078l-76.24-15.24c0.443-8.089-3.298-16.139-10.401-20.873l-11.385-7.59
		C326.38,265.001,343,226.566,343,183.5c0-8.243-0.618-16.449-1.824-24.5H367.5c4.142,0,7.5-3.357,7.5-7.5s-3.358-7.5-7.5-7.5H359
		v-8.5c0-29.458-10.284-58.192-28.957-80.91c-3.438-4.182-7.129-8.126-11.043-11.815V39.5c0-4.143-3.358-7.5-7.5-7.5
		c-1.469,0-2.834,0.428-3.991,1.158c-13.416-9.964-28.715-17.27-44.971-21.346C260.877,5.043,254.774,0,247.5,0h-32
		c-7.274,0-13.377,5.043-15.038,11.812c-16.256,4.076-31.555,11.382-44.971,21.346C154.334,32.428,152.969,32,151.5,32
		c-4.142,0-7.5,3.357-7.5,7.5v3.275c-3.909,3.684-7.597,7.623-11.031,11.8C114.288,77.296,104,106.035,104,135.5v8.5h-8.5
		c-4.142,0-7.5,3.357-7.5,7.5s3.358,7.5,7.5,7.5h26.324c-1.207,8.051-1.824,16.256-1.824,24.5c0,43.066,16.62,81.501,42.473,106.338
		l-11.385,7.59c-7.102,4.734-10.844,12.784-10.401,20.873l-76.24,15.24c-0.117,0.023-0.233,0.05-0.349,0.078
		C35.779,340.699,16,366.032,16,395.224V439.5c0,12.958,10.542,23.5,23.5,23.5h384c12.958,0,23.5-10.542,23.5-23.5v-44.276
		C447,366.032,427.221,340.699,398.901,333.619z M127,336.334l18.661-3.73l30.141,60.287c1.452,2.896,2.707,5.397,6.495,6.013
		c0.401,0.064,0.803,0.097,1.203,0.097c1.956,0,3.853-0.766,5.268-2.162c2.578-2.544,5.126-4.881,7.624-7.046
		C207.075,395.825,219.117,399,231.5,399c12.404,0,24.428-3.172,35.109-9.207c2.498,2.164,5.045,4.501,7.622,7.045
		c1.415,1.396,3.312,2.162,5.268,2.162c0.4,0,0.802-0.032,1.203-0.097c3.788-0.615,5.043-3.116,6.495-6.013l30.141-60.287
		l26.661,5.33V448H127V336.334z M112,448H95V342.73l17-3.398V448z M231.498,367.488c3.729,1.486,11.818,5.12,21.942,12.089
		c-6.893,2.908-14.325,4.423-21.94,4.423c-7.605,0-15.046-1.512-21.944-4.42C219.687,372.604,227.781,368.969,231.498,367.488z
		 M359,340.931l17,3.398V448h-17V340.931z M306.483,320.773c-15.983,31.986-24.677,49.376-29.199,58.413
		c-12.864-11.311-24.587-18.251-32.629-22.235l51.8-51.8l7.136,4.757C307.149,312.28,308.393,316.951,306.483,320.773z M344,135.5
		v8.5h-25V64.809C335.12,84.74,344,109.802,344,135.5z M263,144V27.489c15.03,4.389,29.018,11.932,41,22.029V144H263z M215.5,15h32
		c0.276,0,0.5,0.225,0.5,0.5V144h-33V15.5C215,15.225,215.224,15,215.5,15z M159,144V49.516c11.982-10.096,25.97-17.639,41-22.029
		V144H159z M119,135.5c0-25.698,8.88-50.76,25-70.692V144h-13.164c-0.025,0-0.051,0-0.076,0H119V135.5z M325.987,159
		c1.329,8.024,2.013,16.237,2.013,24.5c0,0.176-0.005,0.35-0.005,0.525c-0.164-0.011-0.328-0.025-0.495-0.025H303v-8.5
		c0-4.143-3.358-7.5-7.5-7.5h-48c-4.142,0-7.5,3.357-7.5,7.5v2.097c-2.638-1.027-5.503-1.597-8.5-1.597s-5.862,0.57-8.5,1.597V175.5
		c0-4.143-3.358-7.5-7.5-7.5h-48c-4.142,0-7.5,3.357-7.5,7.5v8.5h-24.5c-0.167,0-0.33,0.014-0.495,0.025
		c-0.001-0.175-0.005-0.349-0.005-0.525c0-8.263,0.684-16.476,2.013-24.5H325.987z M135.796,199H160v0.5c0,4.143,3.358,7.5,7.5,7.5
		s7.5-3.357,7.5-7.5V183h9v8.5c0,4.143,3.358,7.5,7.5,7.5s7.5-3.357,7.5-7.5V183h9v16.5c0,4.143,3.358,7.5,7.5,7.5
		s7.5-3.357,7.5-7.5c0-4.687,3.813-8.5,8.5-8.5s8.5,3.813,8.5,8.5c0,4.143,3.358,7.5,7.5,7.5s7.5-3.357,7.5-7.5V183h9v8.5
		c0,4.143,3.358,7.5,7.5,7.5s7.5-3.357,7.5-7.5V183h9v16.5c0,4.143,3.358,7.5,7.5,7.5s7.5-3.357,7.5-7.5V199h24.204
		c-6.11,59.15-46.699,105-95.704,105S141.906,258.15,135.796,199z M231.5,319c13.338,0,26.136-2.865,38.001-8.108L231.5,348.893
		l-38.001-38.001C205.364,316.135,218.162,319,231.5,319z M159.409,309.908l7.136-4.757l51.8,51.8
		c-8.042,3.984-19.765,10.925-32.629,22.235c-4.522-9.037-13.216-26.427-29.199-58.413
		C154.607,316.951,155.851,312.28,159.409,309.908z M31,439.5v-44.276c0-22.238,15.028-41.545,36.57-47.01L80,345.729V448H39.5
		C34.813,448,31,444.187,31,439.5z M432,439.5c0,4.687-3.813,8.5-8.5,8.5H391V347.328l4.43,0.886
		c21.542,5.465,36.57,24.771,36.57,47.01V439.5z"/>
	<path d="M195.281,261.48c8.89,6.05,22.091,9.52,36.219,9.52s27.33-3.47,36.219-9.52c3.425-2.33,4.312-6.995,1.981-10.42
		c-2.33-3.423-6.996-4.31-10.42-1.98c-6.368,4.333-16.753,6.92-27.781,6.92s-21.413-2.587-27.781-6.92
		c-3.424-2.331-8.089-1.443-10.42,1.98C190.969,254.485,191.856,259.15,195.281,261.48z"/>
</g>
<g>
</g>
<g>
</g>
<g>
</g>
<g>
</g>
<g>
</g>
<g>
</g>
<g>
</g>
<g>
</g>
<g>
</g>
<g>
</g>
<g>
</g>
<g>
</g>
<g>
</g>
<g>
</g>
<g>
</g>
</svg>
