<?xml version='1.0' encoding='iso-8859-1'?>
<svg version="1.1" xmlns="http://www.w3.org/2000/svg" viewBox="0 0 463 463" xmlns:xlink="http://www.w3.org/1999/xlink" enable-background="new 0 0 463 463" fill="#d2940e">
  <g>
    <path d="m455.5,400h-24.5v-56.5c0-4.142-3.357-7.5-7.5-7.5h-64.5v-24.5c0-4.142-3.357-7.5-7.5-7.5h-32.731l-7.531-240.984c-0.262-8.42-7.067-15.016-15.492-15.016h-32.492c-8.425,0-15.229,6.596-15.492,15.016l-7.531,240.984h-34.712l-6.281-200.984c-0.262-8.42-7.067-15.016-15.492-15.016h-32.492c-8.425,0-15.229,6.596-15.492,15.016l-6.281,200.984h-33.981c-4.143,0-7.5,3.358-7.5,7.5v24.5h-48.5c-4.143,0-7.5,3.358-7.5,7.5v56.5h-24.5c-4.143,0-7.5,3.358-7.5,7.5s3.357,7.5 7.5,7.5h448c4.143,0 7.5-3.358 7.5-7.5s-3.357-7.5-7.5-7.5zm-39.5-49v49h-57v-49h57zm-115.738-159h-41.524l.531-17h40.462l.531,17zm-1-32h-39.524l.781-25h37.962l.781,25zm-40.993,47h42.462l.781,25h-44.024l.781-25zm39.743-87h-37.024l.531-17h35.962l.531,17zm-40.993,127h44.962l.531,17h-46.024l.531-17zm6.235-184h32.492c0.271,0 0.491,0.212 0.5,0.484l.766,24.516h-35.024l.766-24.516c0.009-0.272 0.228-0.484 0.5-0.484zm-7.235,216h46.962l.781,25h-48.524l.781-25zm-68.757-79h-39.524l.781-25h37.962l.781,25zm-39.993,15h40.462l.531,17h-41.524l.531-17zm38.743-55h-37.024l.531-17h35.962l.531,17zm-39.743,87h42.462l.781,25h-44.024l.781-25zm4.985-144h32.492c0.271,0 0.491,0.212 0.5,0.484l.766,24.516h-35.024l.766-24.516c0.009-0.272 0.228-0.484 0.5-0.484zm-6.235,184h44.962l.531,17h-46.024l.531-17zm-42.019,32h241v81h-17v-56.5c0-4.142-3.357-7.5-7.5-7.5s-7.5,3.358-7.5,7.5v56.5h-17v-56.5c0-4.142-3.357-7.5-7.5-7.5s-7.5,3.358-7.5,7.5v56.5h-17v-56.5c0-4.142-3.357-7.5-7.5-7.5s-7.5,3.358-7.5,7.5v56.5h-17v-56.5c0-4.142-3.357-7.5-7.5-7.5h-120.5v-17zm-56,32h169v49h-169v-49z"/>
    <path d="m79.5,360h-16c-4.143,0-7.5,3.358-7.5,7.5s3.357,7.5 7.5,7.5h16c4.143,0 7.5-3.358 7.5-7.5s-3.357-7.5-7.5-7.5z"/>
    <path d="m119.5,360h-16c-4.143,0-7.5,3.358-7.5,7.5s3.357,7.5 7.5,7.5h16c4.143,0 7.5-3.358 7.5-7.5s-3.357-7.5-7.5-7.5z"/>
    <path d="m159.5,360h-16c-4.143,0-7.5,3.358-7.5,7.5s3.357,7.5 7.5,7.5h16c4.143,0 7.5-3.358 7.5-7.5s-3.357-7.5-7.5-7.5z"/>
    <path d="m199.5,360h-16c-4.143,0-7.5,3.358-7.5,7.5s3.357,7.5 7.5,7.5h16c4.143,0 7.5-3.358 7.5-7.5s-3.357-7.5-7.5-7.5z"/>
    <path d="m375.5,375h24c4.143,0 7.5-3.358 7.5-7.5s-3.357-7.5-7.5-7.5h-24c-4.143,0-7.5,3.358-7.5,7.5s3.357,7.5 7.5,7.5z"/>
  </g>
</svg>
